gait_60_test.mot
version=1
nRows=27
nColumns=19
inDegrees=yes
endheader
time	ground_force_vx	ground_force_vy	ground_force_vz	ground_force_px	ground_force_py	ground_force_pz	1_ground_force_vx	1_ground_force_vy	1_ground_force_vz	1_ground_force_px	1_ground_force_py	1_ground_force_pz	ground_torque_x	ground_torque_y	ground_torque_z	1_ground_torque_x	1_ground_torque_y	1_ground_torque_z
      2.30600000	      0.00000000	      0.00000000	      0.00000000	      0.00000000	      0.00000000	      0.00000000	    124.58527897	    516.66513465	     -3.24338834	      0.26809494	      0.00000000	     -0.16323268	      0.00000000	      0.00000000	      0.00000000	      0.00000000	      0.80759516	      0.00000000
      2.30700000	      0.00000000	      0.00000000	      0.00000000	      0.00000000	      0.00000000	      0.00000000	    124.61463429	    512.28052485	     -2.85882885	      0.26823919	      0.00000000	     -0.16328093	      0.00000000	      0.00000000	      0.00000000	      0.00000000	      0.78558672	      0.00000000
      2.30800000	      0.00000000	      0.00000000	      0.00000000	      0.00000000	      0.00000000	      0.00000000	    124.60726100	    507.79315572	     -2.47131960	      0.26838321	      0.00000000	     -0.16332919	      0.00000000	      0.00000000	      0.00000000	      0.00000000	      0.76406230	      0.00000000
      2.30900000	      0.00000000	      0.00000000	      0.00000000	      0.00000000	      0.00000000	      0.00000000	    124.56187112	    503.20233892	     -2.08131480	      0.26852703	      0.00000000	     -0.16337746	      0.00000000	      0.00000000	      0.00000000	      0.00000000	      0.74302863	      0.00000000
      2.31000000	      0.00000000	      0.00000000	      0.00000000	      0.00000000	      0.00000000	      0.00000000	    124.47719069	    498.50752403	     -1.68928849	      0.26867065	      0.00000000	     -0.16342573	      0.00000000	      0.00000000	      0.00000000	      0.00000000	      0.72249177	      0.00000000
      2.31100000	      0.00000000	      0.00000000	      0.00000000	      0.00000000	      0.00000000	      0.00000000	    124.35196350	    493.70830581	     -1.29573374	      0.26881412	      0.00000000	     -0.16347401	      0.00000000	      0.00000000	      0.00000000	      0.00000000	      0.70245714	      0.00000000
      2.31200000	      0.00000000	      0.00000000	      0.00000000	      0.00000000	      0.00000000	      0.00000000	    124.18495493	    488.80443121	     -0.90116167	      0.26895746	      0.00000000	     -0.16352230	      0.00000000	      0.00000000	      0.00000000	      0.00000000	      0.68292950	      0.00000000
      2.31300000	      0.00000000	      0.00000000	      0.00000000	      0.00000000	      0.00000000	      0.00000000	    123.97495585	    483.79580597	     -0.50610035	      0.26910069	      0.00000000	     -0.16357060	      0.00000000	      0.00000000	      0.00000000	      0.00000000	      0.66391298	      0.00000000
      2.31400000	      0.00000000	      0.00000000	      0.00000000	      0.00000000	      0.00000000	      0.00000000	    123.72078667	    478.68250098	     -0.11109365	      0.26924386	      0.00000000	     -0.16361891	      0.00000000	      0.00000000	      0.00000000	      0.00000000	      0.64541107	      0.00000000
      2.31500000	      0.00000000	      0.00000000	      0.00000000	      0.00000000	      0.00000000	      0.00000000	    123.42130140	    473.46475821	      0.28329998	      0.26938700	      0.00000000	     -0.16366724	      0.00000000	      0.00000000	      0.00000000	      0.00000000	      0.62742656	      0.00000000
      2.31600000	      0.00000000	      0.00000000	      0.00000000	      0.00000000	      0.00000000	      0.00000000	    123.07539185	    468.14299632	      0.67650884	      0.26953015	      0.00000000	     -0.16371558	      0.00000000	      0.00000000	      0.00000000	      0.00000000	      0.60996162	      0.00000000
      2.31700000	      0.00000000	      0.00000000	      0.00000000	      0.00000000	      0.00000000	      0.00000000	    122.68199190	    462.71781581	      1.06794933	      0.26967336	      0.00000000	     -0.16376394	      0.00000000	      0.00000000	      0.00000000	      0.00000000	      0.59301773	      0.00000000
      2.31800000	      0.00000000	      0.00000000	      0.00000000	      0.00000000	      0.00000000	      0.00000000	    122.24008180	    457.19000371	      1.45702741	      0.26981667	      0.00000000	     -0.16381233	      0.00000000	      0.00000000	      0.00000000	      0.00000000	      0.57659571	      0.00000000
      2.31900000	      0.00000000	      0.00000000	      0.00000000	      0.00000000	      0.00000000	      0.00000000	    121.74869263	    451.56053792	      1.84314007	      0.26996014	      0.00000000	     -0.16386076	      0.00000000	      0.00000000	      0.00000000	      0.00000000	      0.56069570	      0.00000000
      2.32000000	      0.00000000	      0.00000000	      0.00000000	      0.00000000	      0.00000000	      0.00000000	    121.20691071	    445.83059090	      2.22567692	      0.27010383	      0.00000000	     -0.16390923	      0.00000000	      0.00000000	      0.00000000	      0.00000000	      0.54531718	      0.00000000
      2.32100000	      0.00000000	      0.00000000	      0.00000000	      0.00000000	      0.00000000	      0.00000000	    120.61388214	    440.00153306	      2.60402186	      0.27024779	      0.00000000	     -0.16395775	      0.00000000	      0.00000000	      0.00000000	      0.00000000	      0.53045894	      0.00000000
      2.32200000	      0.00000000	      0.00000000	      0.00000000	      0.00000000	      0.00000000	      0.00000000	    119.96881742	    434.07493545	      2.97755484	      0.27039210	      0.00000000	     -0.16400633	      0.00000000	      0.00000000	      0.00000000	      0.00000000	      0.51611912	      0.00000000
      2.32300000	      0.00000000	      0.00000000	      0.00000000	      0.00000000	      0.00000000	      0.00000000	    119.27099605	    428.05257213	      3.34565364	      0.27053683	      0.00000000	     -0.16405498	      0.00000000	      0.00000000	      0.00000000	      0.00000000	      0.50229511	      0.00000000
      2.32400000	      0.00000000	      0.00000000	      0.00000000	      0.00000000	      0.00000000	      0.00000000	    118.51977127	    421.93642201	      3.70769573	      0.27068205	      0.00000000	     -0.16410373	      0.00000000	      0.00000000	      0.00000000	      0.00000000	      0.48898366	      0.00000000
      2.32500000	      0.00000000	      0.00000000	      0.00000000	      0.00000000	      0.00000000	      0.00000000	    117.71457477	    415.72867035	      4.06306017	      0.27082785	      0.00000000	     -0.16415257	      0.00000000	      0.00000000	      0.00000000	      0.00000000	      0.47618077	      0.00000000
      2.32600000	      0.00000000	      0.00000000	      0.00000000	      0.00000000	      0.00000000	      0.00000000	    116.85492144	    409.43170977	      4.41112954	      0.27097431	      0.00000000	     -0.16420154	      0.00000000	      0.00000000	      0.00000000	      0.00000000	      0.46388178	      0.00000000
      2.32700000	      0.00000000	      0.00000000	      0.00000000	      0.00000000	      0.00000000	      0.00000000	    115.94041421	    403.04814084	      4.75129194	      0.27112154	      0.00000000	     -0.16425064	      0.00000000	      0.00000000	      0.00000000	      0.00000000	      0.45208132	      0.00000000
      2.32800000	      0.00000000	      0.00000000	      0.00000000	      0.00000000	      0.00000000	      0.00000000	    114.97074868	    396.58077209	      5.08294302	      0.27126964	      0.00000000	     -0.16429990	      0.00000000	      0.00000000	      0.00000000	      0.00000000	      0.44077331	      0.00000000
      2.32900000	      0.00000000	      0.00000000	      0.00000000	      0.00000000	      0.00000000	      0.00000000	    113.94571786	    390.03261954	      5.40548811	      0.27141871	      0.00000000	     -0.16434934	      0.00000000	      0.00000000	      0.00000000	      0.00000000	      0.42995100	      0.00000000
      2.33000000	      0.00000000	      0.00000000	      0.00000000	      0.00000000	      0.00000000	      0.00000000	    112.86521667	    383.40690554	      5.71834432	      0.27156887	      0.00000000	     -0.16439899	      0.00000000	      0.00000000	      0.00000000	      0.00000000	      0.41960697	      0.00000000
      2.33100000	      0.00000000	      0.00000000	      0.00000000	      0.00000000	      0.00000000	      0.00000000	    111.72924634	    376.70705705	      6.02094270	      0.27172024	      0.00000000	     -0.16444886	      0.00000000	      0.00000000	      0.00000000	      0.00000000	      0.40973310	      0.00000000
      2.33200000	      0.00000000	      0.00000000	      0.00000000	      0.00000000	      0.00000000	      0.00000000	    110.53791863	    369.93670333	      6.31273044	      0.27187297	      0.00000000	     -0.16449899	      0.00000000	      0.00000000	      0.00000000	      0.00000000	      0.40032065	      0.00000000
